<?xml version="1.0" standalone="no"?>
<!DOCTYPE svg PUBLIC "-//W3C//DTD SVG 20010904//EN"
 "http://www.w3.org/TR/2001/REC-SVG-20010904/DTD/svg10.dtd">
<svg version="1.0" xmlns="http://www.w3.org/2000/svg"
 width="512.000000pt" height="512.000000pt" viewBox="0 0 512.000000 512.000000"
 preserveAspectRatio="xMidYMid meet">
<metadata>
Created by potrace 1.16, written by Peter Selinger 2001-2019
</metadata>
<g transform="translate(0.000000,512.000000) scale(0.100000,-0.100000)"
fill="#000000" stroke="none">
<path d="M3802 5008 c428 -417 479 -1068 122 -1541 -36 -46 -260 -279 -518
-537 -375 -374 -456 -451 -461 -435 -34 107 -107 190 -192 219 -59 20 -156 20
-216 0 -102 -34 -185 -146 -194 -258 -8 -91 16 -161 74 -226 47 -52 127 -100
168 -100 14 0 -90 -110 -330 -350 l-350 -350 -87 0 -88 0 0 -88 0 -88 -348
-345 c-367 -366 -425 -415 -586 -490 -73 -33 -203 -77 -280 -94 l-29 -6 24
-16 c13 -9 26 -20 29 -23 34 -41 218 -139 336 -179 147 -49 257 -64 419 -58
237 10 436 75 632 208 60 41 388 362 1427 1398 741 741 1390 1392 1441 1448
104 114 159 193 210 300 272 568 47 1257 -506 1545 -194 101 -363 138 -638
138 l-134 0 75 -72z"/>
<path d="M1382 4728 l3 -93 90 0 90 0 3 93 3 92 -96 0 -96 0 3 -92z"/>
<path d="M2862 4467 l-124 -124 26 -21 c59 -46 162 -36 219 22 61 61 70 164
19 225 -17 21 -18 21 -140 -102z"/>
<path d="M3290 4120 l0 -90 90 0 90 0 0 90 0 90 -90 0 -90 0 0 -90z"/>
<path d="M1560 2820 l0 -90 90 0 90 0 0 90 0 90 -90 0 -90 0 0 -90z"/>
<path d="M0 2470 l0 -90 90 0 90 0 0 90 0 90 -90 0 -90 0 0 -90z"/>
<path d="M890 1755 l-125 -126 25 -19 c74 -58 211 -26 254 58 32 64 28 143
-12 191 -17 21 -18 21 -142 -104z"/>
<path d="M4772 738 l3 -93 85 0 85 0 3 93 3 92 -91 0 -91 0 3 -92z"/>
<path d="M2770 215 l0 -95 90 0 90 0 0 95 0 95 -90 0 -90 0 0 -95z"/>
</g>
</svg>
